<?xml version="1.0" encoding="utf-8"?>
<!-- Generator: Adobe Illustrator 23.1.0, SVG Export Plug-In . SVG Version: 6.00 Build 0)  -->
<svg version="1.1" id="Слой_1" xmlns="http://www.w3.org/2000/svg" xmlns:xlink="http://www.w3.org/1999/xlink" x="0px" y="0px"
	 viewBox="0 0 672 658" style="enable-background:new 0 0 672 658;" xml:space="preserve">
<style type="text/css">
	.st0{fill:#FFA113;}
	.st1{fill:#FFFFFF;}
</style>
<circle class="st0" cx="336" cy="329" r="312"/>
<g>
	<path class="st1" d="M336,313.5c-59,0-118,0-177,0c-12.7,0-17.4-4.8-17.4-17.6c0-7.7-0.1-15.3,0-23c0.1-9.3,5.7-14.8,14.9-14.9
		c0.3,0,0.6,0,0.9,0c3.5,0.1,7.4-0.8,10.3,0.5c3.7,1.6,1.2,6.2,2.2,9.4c1.6,5.1,3.6,9.7,7.4,13.5c3.2,3.2,6.3,6.4,9.5,9.5
		c11.9,11.7,28.5,11.7,40.3,0.1c9.9-9.8,19.7-19.6,29.4-29.5c2.4-2.5,4.8-3.6,8.3-3.6c47.4,0.1,94.9,0.1,142.3,0
		c3.5,0,5.9,1.1,8.3,3.5c9.6,9.8,19.4,19.5,29.1,29.2c12.2,12.1,28.7,12.1,40.9,0c2.9-2.8,5.7-5.8,8.6-8.6c5.6-5.4,8.5-12,8.5-19.8
		c0-3.1,0.9-4.5,4.2-4.3c3.3,0.2,6.7-0.1,10,0.1c7.8,0.3,13.4,5.8,13.6,13.5c0.2,9.4,0.2,18.8,0,28.2c-0.2,8.4-6.2,13.7-15.2,13.8
		c-27.9,0-55.8,0-83.7,0C399.6,313.5,367.8,313.5,336,313.5z"/>
	<path class="st1" d="M294.5,150c9.5,0.1,24.4,15,24.4,23.6c0,4-1.5,7.3-4.3,10.1c-32.5,32.5-65,65.1-97.6,97.6
		c-6.1,6-14,6-20.1,0.2c-3.3-3.1-6.4-6.3-9.5-9.5c-5.7-6-5.8-14,0-19.8c32.6-32.7,65.2-65.3,97.9-97.9
		C288,151.4,291.4,149.9,294.5,150z"/>
	<path class="st1" d="M353.1,174.6C353,165,368,150,376.8,150c4.7,0,8.1,2.4,11.3,5.6c30,30.1,60.1,60.2,90.2,90.2
		c2.1,2.1,4.4,4.2,6.4,6.5c5.4,5.9,5.4,13.7-0.1,19.5c-2.8,3-5.7,5.8-8.6,8.6c-7.2,7.1-14.9,7.2-22,0.1
		c-21.3-21.3-42.6-42.5-63.8-63.8c-10.7-10.7-21.5-21.5-32.2-32.2C355,181.5,353,178.2,353.1,174.6z"/>
	<path class="st1" d="M155.5,327.6c0.5,1.8,1,3.3,1.4,4.8c15.7,51.6,31.4,103.1,47.1,154.7c4.2,13.9,13.7,21,28.2,21
		c69.2,0,138.3,0,207.5,0c14.5,0,24-7.1,28.2-21c12.4-40.6,24.8-81.3,37.2-121.9c3.8-12.4,7.5-24.8,11.4-37.5
		C396,327.6,275.9,327.6,155.5,327.6z M352.7,355.2c12,0.1,24,0.1,36,0c2.5,0,2.8,1.1,2.8,3.1c-0.1,5.9,0,11.9,0,17.8
		c0,5.9-0.1,11.9,0,17.8c0,2.2-0.6,3.1-2.9,3c-12-0.1-24-0.1-36,0c-2,0-2.8-0.6-2.8-2.7c0.1-12.2,0.1-24.3,0-36.5
		C349.8,355.5,350.8,355.2,352.7,355.2z M249.6,466.4c-6.6-0.2-13.3-0.1-20,0c-2,0-3.1-0.6-3.7-2.6c-3.6-12-7.2-24.1-10.9-36.1
		c-0.7-2.2-0.5-3.1,2.1-3.1c10.8,0.1,21.7,0.1,32.5,0c2.6,0,3.1,1,3.1,3.3c-0.1,5.9,0,11.9,0,17.8c0,5.8-0.1,11.6,0,17.4
		C252.7,465.4,252.2,466.4,249.6,466.4z M248.9,396.9c-11.4-0.1-22.9-0.2-34.3,0c-3.2,0.1-3.9-1.1-3.8-4c0.2-5.8,0.1-11.6,0.1-17.4
		c0-5.6,0.1-11.3,0-16.9c-0.1-2.5,0.5-3.6,3.3-3.5c11.7,0.2,23.4,0.2,35.2,0c2.8,0,3.3,1,3.3,3.5c-0.1,11.6-0.1,23.1,0,34.7
		C252.7,396.4,251.6,396.9,248.9,396.9z M318.6,466.4c-11.6-0.1-23.1-0.1-34.7,0c-3,0-3.5-1.1-3.5-3.8c0.1-11.4,0.2-22.9,0-34.3
		c-0.1-3.2,1.1-3.8,4-3.7c5.6,0.2,11.3,0.1,16.9,0.1c5.8,0,11.6,0.1,17.4,0c2.5-0.1,3.6,0.5,3.5,3.3c-0.2,11.7-0.2,23.4,0,35.2
		C322.2,465.9,321.1,466.4,318.6,466.4z M318.4,396.9c-11.4-0.1-22.9-0.2-34.3,0c-3.2,0.1-3.9-1.1-3.8-4c0.2-5.8,0.1-11.6,0.1-17.4
		c0-5.6,0.1-11.3,0-16.9c-0.1-2.5,0.5-3.6,3.3-3.5c11.7,0.2,23.4,0.2,35.2,0c2.8,0,3.3,1,3.3,3.5c-0.1,11.6-0.1,23.1,0,34.7
		C322.2,396.4,321.1,396.9,318.4,396.9z M387.8,466.4c-11.4-0.1-22.9-0.2-34.3,0c-3.2,0.1-3.8-1.1-3.7-4c0.2-5.6,0.1-11.3,0.1-16.9
		c0-5.8,0.1-11.6,0-17.4c-0.1-2.5,0.5-3.6,3.3-3.5c11.7,0.2,23.4,0.2,35.2,0c2.8,0,3.3,1.1,3.3,3.5c-0.1,11.6-0.1,23.1,0,34.7
		C391.6,465.9,390.5,466.4,387.8,466.4z M456.9,427.9c-3.7,11.9-7.3,23.7-10.8,35.7c-0.7,2.2-1.8,2.9-4,2.8c-6.5-0.1-13-0.2-19.5,0
		c-2.8,0.1-3.4-1-3.3-3.5c0.1-5.8,0-11.6,0-17.4c0-5.8,0.1-11.6,0-17.4c-0.1-2.5,0.5-3.6,3.3-3.6c10.7,0.2,21.4,0.1,32.1,0
		C457.5,424.6,457.7,425.5,456.9,427.9z M461,393.6c0,2.8-1,3.3-3.5,3.3c-11.6-0.1-23.1-0.1-34.7,0c-3,0-3.6-1.1-3.5-3.8
		c0.1-11.4,0.2-22.9,0-34.3c-0.1-3.2,1.1-3.9,4-3.8c5.8,0.2,11.6,0.1,17.4,0.1c5.6,0,11.3,0.1,16.9,0c2.5-0.1,3.6,0.5,3.5,3.3
		C460.9,370.2,460.9,381.9,461,393.6z"/>
</g>
</svg>
