<?xml version="1.0" encoding="utf-8"?>
<!-- Generator: Adobe Illustrator 23.1.0, SVG Export Plug-In . SVG Version: 6.00 Build 0)  -->
<svg version="1.1" id="Слой_1" xmlns="http://www.w3.org/2000/svg" xmlns:xlink="http://www.w3.org/1999/xlink" x="0px" y="0px"
	 viewBox="0 0 672 658" style="enable-background:new 0 0 672 658;" xml:space="preserve">
<style type="text/css">
	.st0{fill:#FFC27A;}
	.st1{fill:#FFFFFF;}
</style>
<circle class="st0" cx="336" cy="329" r="312"/>
<g>
	<path class="st1" d="M336,309.8c-73.2,0-146.4,0-219.6,0c-15.8,0-21.6-5.9-21.6-21.9c0-9.5-0.1-19,0-28.5
		c0.1-11.5,7-18.3,18.5-18.5c0.4,0,0.7,0,1.1,0c4.3,0.1,9.1-1,12.8,0.6c4.6,2,1.5,7.7,2.8,11.7c2,6.3,4.4,12.1,9.2,16.8
		c3.9,3.9,7.8,7.9,11.8,11.8c14.7,14.5,35.3,14.6,49.9,0.1c12.2-12.1,24.5-24.3,36.5-36.6c3-3,6-4.4,10.3-4.4
		c58.8,0.1,117.7,0.1,176.5,0c4.3,0,7.4,1.3,10.4,4.4c11.9,12.2,24,24.2,36.1,36.2c15.1,15,35.5,15,50.7,0
		c3.6-3.5,7.1-7.2,10.7-10.6c6.9-6.7,10.5-14.9,10.6-24.5c0-3.9,1.1-5.6,5.2-5.4c4.1,0.3,8.3-0.1,12.4,0.1
		c9.6,0.4,16.7,7.2,16.9,16.8c0.3,11.7,0.2,23.3,0,35c-0.2,10.4-7.7,17-18.8,17.1c-34.6,0-69.2,0-103.9,0
		C414.9,309.8,375.4,309.8,336,309.8z"/>
	<path class="st1" d="M284.5,107c11.8,0.1,30.2,18.6,30.2,29.3c0,4.9-1.8,9.1-5.3,12.5c-40.3,40.3-80.7,80.7-121.1,121
		c-7.5,7.5-17.4,7.5-25,0.3c-4-3.8-8-7.8-11.8-11.8c-7-7.4-7.2-17.3,0-24.6c40.4-40.6,80.9-81,121.4-121.5
		C276.5,108.8,280.6,106.9,284.5,107z"/>
	<path class="st1" d="M357.2,137.5c-0.1-11.9,18.5-30.5,29.5-30.5c5.8,0,10.1,3,14,6.9c37.3,37.3,74.6,74.6,111.9,111.9
		c2.7,2.7,5.4,5.3,8,8c6.7,7.3,6.7,16.9-0.1,24.2c-3.4,3.7-7.1,7.1-10.6,10.7c-8.9,8.8-18.5,8.9-27.3,0.1
		c-26.4-26.4-52.8-52.8-79.2-79.2c-13.3-13.3-26.6-26.7-40-39.9C359.6,146.1,357.1,141.9,357.2,137.5z"/>
	<path class="st1" d="M112.2,327.2c0.6,2.2,1.2,4.1,1.8,5.9c19.5,63.9,38.9,127.9,58.4,191.8c5.2,17.2,17,26,35,26
		c85.8,0,171.5,0,257.3,0c18,0,29.7-8.8,35-26c15.4-50.4,30.7-100.8,46.1-151.2c4.7-15.4,9.3-30.8,14.1-46.6
		C410.4,327.2,261.5,327.2,112.2,327.2z M356.8,361.5c14.9,0.1,29.8,0.1,44.7,0c3.1,0,3.5,1.3,3.5,3.9c-0.1,7.4,0,14.7,0,22.1
		c0,7.4-0.1,14.7,0,22.1c0.1,2.7-0.7,3.8-3.6,3.8c-14.9-0.1-29.8-0.1-44.7,0c-2.5,0-3.5-0.7-3.5-3.3c0.1-15.1,0.1-30.1,0-45.2
		C353.1,361.9,354.4,361.4,356.8,361.5z M228.8,499.4c-8.2-0.2-16.5-0.2-24.7,0c-2.5,0-3.9-0.7-4.6-3.2
		c-4.4-14.9-8.9-29.9-13.6-44.7c-0.9-2.8-0.6-3.8,2.6-3.8c13.4,0.1,26.9,0.1,40.4,0c3.3,0,3.8,1.3,3.8,4.1c-0.1,7.4,0,14.7,0,22.1
		c0,7.2-0.1,14.4,0.1,21.5C232.7,498.2,232,499.5,228.8,499.4z M228,413.2c-14.2-0.2-28.3-0.2-42.5,0c-4,0.1-4.8-1.4-4.7-4.9
		c0.2-7.2,0.1-14.4,0.1-21.5c0-7,0.1-14-0.1-21c-0.1-3.1,0.6-4.4,4.1-4.4c14.5,0.2,29.1,0.2,43.6,0c3.5,0,4.1,1.3,4.1,4.4
		c-0.1,14.4-0.2,28.7,0,43.1C232.7,412.6,231.3,413.3,228,413.2z M314.4,499.4c-14.4-0.1-28.7-0.2-43.1,0c-3.7,0.1-4.4-1.4-4.4-4.7
		c0.1-14.2,0.2-28.4,0-42.5c-0.1-4,1.4-4.8,5-4.6c7,0.2,14,0.1,21,0.1c7.2,0,14.4,0.1,21.5-0.1c3.1-0.1,4.4,0.6,4.4,4.1
		c-0.2,14.5-0.2,29.1,0,43.6C318.9,498.8,317.5,499.4,314.4,499.4z M314.2,413.2c-14.2-0.2-28.3-0.2-42.5,0c-4,0.1-4.8-1.4-4.7-4.9
		c0.2-7.2,0.1-14.4,0.1-21.5c0-7,0.1-14-0.1-21c-0.1-3.1,0.6-4.4,4.1-4.4c14.5,0.2,29.1,0.2,43.6,0c3.5,0,4.1,1.3,4.1,4.4
		c-0.1,14.4-0.2,28.7,0,43.1C318.9,412.6,317.5,413.3,314.2,413.2z M400.3,499.4c-14.2-0.1-28.3-0.2-42.5,0c-4,0.1-4.8-1.4-4.6-5
		c0.2-7,0.1-14,0.1-21c0-7.2,0.1-14.4-0.1-21.5c-0.1-3.1,0.6-4.4,4.1-4.4c14.5,0.2,29.1,0.2,43.6,0c3.5,0,4.1,1.3,4.1,4.4
		c-0.1,14.4-0.2,28.7,0,43.1C405,498.7,403.6,499.4,400.3,499.4z M485.9,451.7c-4.6,14.7-9,29.4-13.4,44.2c-0.8,2.7-2.2,3.5-5,3.5
		c-8.1-0.2-16.1-0.2-24.2,0c-3.5,0.1-4.2-1.3-4.1-4.4c0.2-7.2,0.1-14.3,0.1-21.5c0-7.2,0.1-14.4-0.1-21.5c-0.1-3.1,0.6-4.5,4.1-4.4
		c13.3,0.2,26.5,0.2,39.8,0C486.7,447.5,486.9,448.7,485.9,451.7z M491.1,409.1c0,3.5-1.3,4.1-4.4,4.1c-14.4-0.1-28.7-0.2-43.1,0
		c-3.7,0.1-4.4-1.3-4.4-4.7c0.2-14.2,0.2-28.4,0-42.5c-0.1-4,1.4-4.8,4.9-4.7c7.2,0.2,14.4,0.1,21.5,0.1c7,0,14,0.1,21-0.1
		c3.1-0.1,4.4,0.6,4.4,4.1C490.9,380.1,490.9,394.6,491.1,409.1z"/>
</g>
</svg>
