<?xml version="1.0" encoding="utf-8"?>
<!-- Generator: Adobe Illustrator 23.1.0, SVG Export Plug-In . SVG Version: 6.00 Build 0)  -->
<svg version="1.1" id="Слой_1" xmlns="http://www.w3.org/2000/svg" xmlns:xlink="http://www.w3.org/1999/xlink" x="0px" y="0px"
	 viewBox="0 0 322 415" style="enable-background:new 0 0 322 415;" xml:space="preserve">
<style type="text/css">
	.st0{fill:#060B26;}
	.st1{fill:#E89F25;}
	.st2{fill:#1F2972;}
</style>
<g>
	<polygon class="st0" points="33.9,292.3 73,292.3 69.3,306.5 47.3,306.5 43.9,319.5 64.6,319.5 61,333.4 40.3,333.4 33.6,359 
		16.5,359 	"/>
	<path class="st0" d="M131.6,324.8c-5.9,22.6-21,35.3-39.4,35.3c-19.5,0-24.8-16.2-20.2-34.1c4.8-18.5,20-34.5,39.1-34.5
		C131.7,291.3,135.9,308.5,131.6,324.8 M90.1,325.7c-3.5,13.5-0.6,20.4,6.5,20.4c7.3,0,13.6-8.2,16.8-20.7c3-11.5,1.2-20.2-6.3-20.2
		C100.2,305.2,93.5,312.8,90.1,325.7"/>
	<path class="st0" d="M177,357.6c-2.6,1.1-8.4,2.4-15.4,2.4c-23.1,0-29-15.5-24.4-33.1c6.2-23.9,25.6-35.3,43.7-35.3
		c6.8,0,11.8,1.3,13.8,2.6l-6.7,13.7c-2.2-1.1-5.3-2.1-9.8-2.1c-9.4,0-19,6.1-22.6,20.1c-3.3,12.6,1.5,19.7,12.4,19.7
		c3.6,0,7.9-0.7,10.6-1.6L177,357.6z"/>
	<path class="st0" d="M219.7,292.3l-10.3,39.3c-2.5,9.7-0.6,14.4,5.2,14.4s10-4.2,12.7-14.4l10.3-39.3h17.1l-9.9,37.7
		c-5.1,19.5-16.9,29.9-34.2,29.9c-17.4,0-23-10.3-17.8-30.3l9.8-37.4L219.7,292.3L219.7,292.3z"/>
	<path class="st0" d="M253.9,342c3.2,1.9,8.8,3.7,14.6,3.7c6,0,9.5-2.3,10.4-5.6c0.9-3.5-1.5-5.4-7.8-8.2
		c-9.9-4.7-13.9-11.3-11.7-19.7c3-11.5,14.5-20.7,30.9-20.7c6.9,0,11.9,1.4,15.1,3.1l-6.9,13.9c-2.3-1.2-6.2-2.9-12-2.9
		c-5.4,0-8.8,2.2-9.5,5.2c-0.8,3.2,1.6,4.8,8.9,8.2c10,4.6,12.9,11.2,10.7,19.8c-3.1,11.8-14.6,21.2-32.5,21.2
		c-7.4,0-13.9-1.9-16.8-3.6L253.9,342z"/>
	<path d="M53,395.3l6.8-1.2c0.6,1.9,2.1,2.9,4.4,2.9c1.9,0,2.8-0.5,2.8-1.5c0-0.5-0.2-0.9-0.6-1.2c-0.4-0.3-1.2-0.5-2.3-0.8
		c-4.2-0.8-6.9-1.9-8.1-3.2c-1.2-1.3-1.8-2.8-1.8-4.6c0-2.3,0.9-4.1,2.6-5.7c1.7-1.5,4.2-2.3,7.4-2.3c4.9,0,8.1,2,9.7,5.9l-6.1,1.9
		c-0.6-1.6-1.9-2.4-3.9-2.4c-1.6,0-2.4,0.5-2.4,1.5c0,0.5,0.2,0.8,0.5,1c0.4,0.3,1.1,0.5,2.1,0.7c2.9,0.6,4.9,1.1,6.1,1.6
		s2.2,1.3,3,2.4s1.2,2.5,1.2,4c0,2.4-1,4.4-3,5.9s-4.6,2.3-7.8,2.3C58,402.6,54.4,400.2,53,395.3"/>
	<path d="M84.9,393.5v8.7h-7.5v-24h10.3c2.6,0,4.5,0.3,5.8,0.9s2.4,1.5,3.2,2.7c0.8,1.2,1.2,2.6,1.2,4.1c0,2.3-0.8,4.1-2.4,5.5
		s-3.7,2.1-6.4,2.1L84.9,393.5L84.9,393.5z M84.8,388.3h2.5c2.2,0,3.3-0.8,3.3-2.4c0-1.5-1-2.3-3-2.3h-2.7v4.7H84.8z"/>
	<path d="M111,402.6c-3.4,0-6.1-1.1-8.3-3.4c-2.1-2.2-3.2-5.2-3.2-9c0-3.6,1-6.6,3.1-8.9c2-2.3,4.9-3.5,8.5-3.5
		c3.3,0,6.1,1.1,8.2,3.3c2.1,2.2,3.2,5.2,3.2,8.9c0,3.8-1.1,6.9-3.2,9.2C117.1,401.5,114.4,402.6,111,402.6 M111,397.1
		c1.2,0,2.1-0.5,2.7-1.6s0.8-3.1,0.8-6c0-4.2-1.1-6.3-3.4-6.3c-2.4,0-3.6,2.4-3.6,7.1C107.5,394.9,108.7,397.1,111,397.1"/>
	<path d="M147,402.3h-8.2l-3.5-9.2H133v9.2h-7.4v-24h12.6c2.8,0,4.9,0.6,6.5,2c1.5,1.3,2.3,3,2.3,5.1c0,1.4-0.3,2.6-0.9,3.7
		c-0.6,1.1-1.7,2-3.4,2.8L147,402.3z M132.9,387.9h3.1c0.9,0,1.7-0.2,2.2-0.6s0.9-1,0.9-1.7c0-1.5-0.9-2.3-2.8-2.3h-3.4V387.9
		L132.9,387.9z"/>
	<polygon points="160.6,384 160.6,402.3 153.6,402.3 153.6,384 148.6,384 148.6,378.2 165.5,378.2 165.5,384 	"/>
	<path d="M174.2,395.3l6.9-1.2c0.6,1.9,2.1,2.9,4.4,2.9c1.9,0,2.8-0.5,2.8-1.5c0-0.5-0.2-0.9-0.6-1.2c-0.4-0.3-1.2-0.5-2.3-0.8
		c-4.2-0.8-6.9-1.9-8.1-3.2c-1.2-1.3-1.8-2.8-1.8-4.6c0-2.3,0.9-4.1,2.6-5.7c1.7-1.5,4.2-2.3,7.4-2.3c4.9,0,8.1,2,9.7,5.9l-6.1,1.9
		c-0.6-1.6-1.9-2.4-3.9-2.4c-1.6,0-2.4,0.5-2.4,1.5c0,0.5,0.2,0.8,0.6,1c0.4,0.3,1.1,0.5,2.1,0.7c2.9,0.6,4.9,1.1,6.1,1.6
		c1.2,0.5,2.2,1.3,3,2.4s1.2,2.5,1.2,4c0,2.4-1,4.4-3,5.9s-4.6,2.3-7.8,2.3C179.2,402.6,175.5,400.2,174.2,395.3"/>
	<polygon points="219,378.2 219,402.3 211.6,402.3 211.6,392.9 205.9,392.9 205.9,402.3 198.6,402.3 198.6,378.2 205.9,378.2 
		205.9,387 211.6,387 211.6,378.2 	"/>
	<path d="M233.6,402.6c-3.4,0-6.1-1.1-8.3-3.4c-2.1-2.2-3.2-5.2-3.2-9c0-3.6,1-6.6,3.1-8.9c2-2.3,4.9-3.5,8.5-3.5
		c3.4,0,6.1,1.1,8.2,3.3c2.1,2.2,3.2,5.2,3.2,8.9c0,3.8-1.1,6.9-3.2,9.2C239.6,401.5,236.9,402.6,233.6,402.6 M233.5,397.1
		c1.2,0,2.1-0.5,2.7-1.6s0.8-3.1,0.8-6c0-4.2-1.1-6.3-3.4-6.3c-2.4,0-3.6,2.4-3.6,7.1C230,394.9,231.2,397.1,233.5,397.1"/>
	<path d="M255.6,393.5v8.7h-7.5v-24h10.3c2.6,0,4.5,0.3,5.8,0.9s2.4,1.5,3.2,2.7c0.8,1.2,1.2,2.6,1.2,4.1c0,2.3-0.8,4.1-2.4,5.5
		s-3.7,2.1-6.4,2.1L255.6,393.5L255.6,393.5z M255.5,388.3h2.5c2.2,0,3.3-0.8,3.3-2.4c0-1.5-1-2.3-3-2.3h-2.7L255.5,388.3
		L255.5,388.3z"/>
</g>
<path class="st1" d="M161,247.9c-64.9,0-117.8-52.8-117.8-117.8S96.1,12.4,161,12.4s117.8,52.8,117.8,117.8S225.9,247.9,161,247.9"
	/>
<path class="st2" d="M161,17c62.5,0,113.1,50.6,113.1,113.1S223.5,243.2,161,243.2S47.9,192.6,47.9,130.1C47.9,67.7,98.5,17,161,17
	 M161,7.7c-32.7,0-63.4,12.7-86.6,35.9c-23.1,23.1-35.9,53.9-35.9,86.6s12.7,63.4,35.9,86.6c23.1,23.1,53.9,35.9,86.6,35.9
	s63.4-12.7,86.6-35.9c23.1-23.1,35.9-53.9,35.9-86.6s-12.7-63.4-35.9-86.6C224.4,20.4,193.7,7.7,161,7.7"/>
<path class="st2" d="M214.2,72.3c0-17-13.8-30.7-30.7-30.7c-17,0-30.7,13.8-30.7,30.7c0,17,13.8,30.7,30.7,30.7
	S214.2,89.2,214.2,72.3"/>
<path class="st2" d="M61,104.9l-0.8-10.2c0,0,41.7-18.1,58-14.2c28,6.7,36.2,25.4,59.1,27.9c23,2.5,52.3,3.5,61.8-7.1
	c3.9-4.3,7.8-33.6,7.8-33.6l9.6,9.6c0,0,0.8,20.7-6.8,32.5c-5,7.7-14.3,14.7-26.4,16.6c-37.3,5.9-49.5,41.3-52.7,62.5
	s-41.4,49.3-41.4,49.3s-17.8-3.6-24.6-10.1c0,0,20.5-10.4,30.6-23.9c5.8-7.7,3.1-16.7,4.3-24.5c3.2-21.6,21.2-42.8,3.2-59.7
	c-10.5-9.9-15.4-18.1-31-23.8C100.6,92.3,87.6,98.6,61,104.9"/>
<path class="st2" d="M184,166c0,0,37.8,13.4,43.6,60.8c0,0-17.1,9.2-22.8,11.5c0,0,4-18.9-11.5-35.3s-15.9-14.5-15.9-14.5L184,166z"
	/>
</svg>
