<?xml version="1.0" encoding="utf-8"?>
<!-- Generator: Adobe Illustrator 23.1.0, SVG Export Plug-In . SVG Version: 6.00 Build 0)  -->
<svg version="1.1" id="Слой_1" xmlns="http://www.w3.org/2000/svg" xmlns:xlink="http://www.w3.org/1999/xlink" x="0px" y="0px"
	 viewBox="0 0 50 50" style="enable-background:new 0 0 50 50;" xml:space="preserve">
<style type="text/css">
	.st0{fill:#999999;stroke:#999999;stroke-miterlimit:10;}
</style>
<path class="st0" d="M6.8,2C6.8,2,6.8,2,6.8,2C6.7,2,6.7,2,6.7,2c-0.2,0-0.4,0.1-0.6,0.3C5.4,2.6,5,3.4,5,4.2V46
	c0,0.6,0.3,1.3,0.8,1.7C6,47.9,6.4,48,6.7,48c0.5,0,0.9-0.1,1.3-0.3c0.8-0.5,18.2-10.5,18.2-10.5l9-5.2c0,0,0,0,0.1,0l0.1-0.1
	c0,0,0.1-0.1,0.1-0.1c0,0,0,0,0,0c0.3-0.2,7.7-4.4,8.7-5c0.7-0.4,1.3-1.1,1.3-1.9s-0.6-1.4-1.2-1.8c-0.4-0.2-2.6-1.5-4.8-2.7
	S35.4,18,35.4,18l-9.2-5.3c0,0-16.8-9.7-17.8-10.3C8.1,2.2,7.7,2,7.3,2C7.2,2,7,2,6.8,2z M7,4.7l20.4,20.2L7,45.1V4.7z M11.8,6.6
	c5.1,2.9,13.5,7.8,13.5,7.8l8.1,4.7l-4.5,4.5L11.8,6.6z M35.1,20.1c0.5,0.3,1.7,1,3.5,2c2.1,1.2,4.3,2.5,4.8,2.8c0.1,0,0,0,0.1,0.1
	c0,0-0.1,0-0.2,0.1c-1,0.6-7.2,4.2-8.2,4.8l-4.9-4.8L35.1,20.1z M28.8,26.3l4.5,4.5l-8.1,4.7c0,0-8.2,4.7-13.4,7.8L28.8,26.3z"/>
</svg>
