<?xml version="1.0" encoding="utf-8"?>
<!-- Generator: Adobe Illustrator 23.1.0, SVG Export Plug-In . SVG Version: 6.00 Build 0)  -->
<svg version="1.1" id="Слой_1" xmlns="http://www.w3.org/2000/svg" xmlns:xlink="http://www.w3.org/1999/xlink" x="0px" y="0px"
	 viewBox="0 0 390 390" style="enable-background:new 0 0 390 390;" xml:space="preserve">
<style type="text/css">
	.st0{fill:#999999;}
</style>
<path class="st0" d="M243.8,387c-38.3,0-76.5,0-114.8,0c-1.7-0.2-3.4-0.4-5.2-0.6c-11.5-1.3-23.2-1.9-34.5-4
	c-30.5-5.8-54.4-21.7-70-49c-9.7-17.1-13.2-35.9-14.8-55.2c-0.5-6.4-1-12.9-1.5-19.3c0-43.2,0-86.5,0-129.8c0.2-1.8,0.4-3.7,0.6-5.5
	c1.3-11.4,1.9-22.9,4-34.2c8-43.1,38.6-73.5,81.6-81.9c16.3-3.2,32.8-3.4,49.3-3.8c3.1-0.1,6.2-0.4,9.3-0.6c32,0,64,0,96,0
	c2.1,0.2,4.2,0.4,6.3,0.6c15.7,1.1,31.5,1.1,47,3.4c44.9,6.7,74.8,35.2,84.9,79.4c3.5,15.4,4.1,31.1,4.4,46.9
	c0.1,4.8,0.4,9.7,0.7,14.5c0,32,0,64,0,96c-0.2,4.5-0.6,8.9-0.7,13.4c-0.3,15.7-0.8,31.5-4.6,46.9c-10,41-35,67.2-76.2,77.4
	c-15.6,3.9-31.6,4.5-47.6,4.9C253.2,386.4,248.5,386.8,243.8,387z M351.7,189.4c0.2,0,0.3,0,0.5,0c0-14.1,0.4-28.3-0.1-42.4
	c-0.7-17-1-34.1-3.6-50.8c-4.2-27.3-20.2-45.6-47.3-52.6c-10.8-2.8-22.1-4.8-33.2-5.2c-26.4-1.1-52.9-1.1-79.4-1.3
	c-19.1-0.1-38.2,0.1-57.4,0.5c-14,0.2-28,0.9-41.6,4.4c-23.4,6.1-39,20.2-46.1,43.6c-5,16.3-6.3,33.1-6.4,50
	c-0.3,40.5-0.4,81,0,121.5c0.1,12.2,1.3,24.5,3.7,36.5c6,29.9,23.9,49,54.4,54.4c12.6,2.2,25.5,3.5,38.3,3.7
	c36.2,0.6,72.5,0.9,108.7,0.5c16.7-0.2,33.5-1.2,50-3.5c29.4-4.3,49.1-22.8,55.2-51.2c2.4-11.2,3.8-22.7,4.1-34.1
	C352.2,238.6,351.7,214,351.7,189.4z"/>
<path class="st0" d="M195,96.4c54.4,0,98.3,43.8,98.5,98.3s-44,98.7-98.6,98.6c-54.5-0.1-98.3-44-98.3-98.5
	C96.7,140.4,140.6,96.5,195,96.4z M195.4,131.1c-35.4-0.2-64.1,28.1-64.2,63.4c-0.2,35.4,28.1,64.1,63.4,64.3
	c35.6,0.2,64.3-28.1,64.4-63.6C259.1,159.7,230.8,131.3,195.4,131.1z"/>
<path class="st0" d="M320.4,92.5c0,12.9-10.3,23.1-23.1,23c-12.6-0.1-22.8-10.4-22.8-23c0-12.8,10.3-23,23.2-22.9
	C310.4,69.7,320.4,79.8,320.4,92.5z"/>
</svg>
