<?xml version="1.0" encoding="utf-8"?>
<!-- Generator: Adobe Illustrator 23.1.0, SVG Export Plug-In . SVG Version: 6.00 Build 0)  -->
<svg version="1.1" id="Слой_1" xmlns="http://www.w3.org/2000/svg" xmlns:xlink="http://www.w3.org/1999/xlink" x="0px" y="0px"
	 viewBox="0 0 390 390" style="enable-background:new 0 0 390 390;" xml:space="preserve">
<style type="text/css">
	.st0{fill:#999999;}
</style>
<path class="st0" d="M361.4,23.4c-4.2,0.2-8.2,1.3-11.9,2.8c-3.6,1.5-24.5,10.4-55.4,23.6s-71,30.4-110.8,47.4
	c-79.6,34.1-157.8,67.6-157.8,67.6l0.6-0.2c0,0-4.7,1.6-9.5,4.9c-2.4,1.7-5,3.8-7.1,7c-2.1,3.1-3.6,7.6-3.1,12.3
	c2,16.5,19.2,21.2,19.2,21.2l0.1,0l76.4,26.1c1.9,6.5,23.2,77.3,27.8,92.3c2.6,8.3,5,13.1,7.5,16.3c1.3,1.6,2.6,2.9,4,3.8
	c0.6,0.4,1.2,0.6,1.8,0.9c0,0,0,0,0,0c0.1,0,0.1,0,0.2,0.1l-0.2-0.1c0.1,0.1,0.3,0.2,0.4,0.2c0.3,0.1,0.4,0.1,0.8,0.2
	c8.7,3.1,16-2.6,16-2.6l0.3-0.2l46.9-43.5l76.2,59.4l1,0.4c13.3,5.9,25.4,2.6,32.1-2.8c6.7-5.4,9.3-12.4,9.3-12.4l0.3-0.7l56-291.7
	c1.4-6.5,1.6-12.2,0.3-17.3s-4.6-9.5-8.7-12S365.6,23.3,361.4,23.4z M361.9,40.9c1.7-0.1,3,0.1,3.4,0.4c0.4,0.2,0.6,0.2,1,1.6
	c0.4,1.4,0.6,4.5-0.5,9.2l0,0.1l-55.6,290c-0.1,0.3-1.3,3-3.9,5.1c-2.7,2.2-5.7,3.9-13.7,0.6l-83.3-65l-2.3-1.8l-0.1,0.1l-24.9-18.7
	l140-164.7c3.1-3.6,2.6-9-1-12.1c-1.6-1.4-3.7-2.1-5.8-2c-1.6,0-3.2,0.5-4.5,1.4L108,220.1l-76.5-26.2c0,0-7.6-4.2-8-7.2
	c0-0.2-0.1,0,0.3-0.6c0.4-0.6,1.4-1.6,2.6-2.4c2.5-1.7,5.3-2.8,5.3-2.8l0.3-0.1l0.3-0.1c0,0,78.2-33.5,157.8-67.6
	c39.8-17,79.9-34.2,110.8-47.4c30.9-13.2,53.2-22.7,55-23.4C358,41.3,360.2,41,361.9,40.9z M269,133.3L162.9,258.2l-0.1,0.1
	c-0.2,0.2-0.3,0.4-0.5,0.6c-0.2,0.2-0.3,0.5-0.5,0.7c-0.6,1-1,2.1-1.1,3.3c0,0,0,0,0,0.1l-13.8,62.2c-0.2-0.7-0.4-0.9-0.6-1.7v0
	c-4.4-14.1-24.4-80.9-27.2-90.2L269,133.3z M174.9,278.7l19.1,14.3l-28,26L174.9,278.7z"/>
</svg>
