<?xml version="1.0" encoding="utf-8"?>
<!-- Generator: Adobe Illustrator 23.1.0, SVG Export Plug-In . SVG Version: 6.00 Build 0)  -->
<svg version="1.1" id="Слой_1" xmlns="http://www.w3.org/2000/svg" xmlns:xlink="http://www.w3.org/1999/xlink" x="0px" y="0px"
	 viewBox="0 0 390 390" style="enable-background:new 0 0 390 390;" xml:space="preserve">
<style type="text/css">
	.st0{fill:#999999;}
</style>
<g>
	<path class="st0" d="M386.6,101.4c0,62.4,0,124.8,0,187.1c-0.2,1.1-0.6,2.2-0.7,3.3c-5.4,52.3-50.7,94.3-103.2,94.7
		c-58.5,0.4-117,0.2-175.5,0c-12.2,0-24-2.6-35.4-7C29.8,362.9,3.4,324.2,3.4,279c0-55.4,0-110.8,0-166.1c0-4.7,0.2-9.5,0.7-14.2
		C7.8,56.9,39.3,19,79.6,7.9c7.2-2,14.6-3.1,21.9-4.5c62.4,0,124.8,0,187.1,0c1,0.2,1.9,0.6,2.9,0.7C334,8.5,370.6,39,382.2,80
		C384.2,86.9,385.2,94.2,386.6,101.4z M194.9,25.8c-27.8,0-55.6,0-83.5,0c-4.8,0-9.8,0.2-14.5,1c-42.2,7.3-71,41.7-71,84.5
		c0,55.8,0,111.5,0,167.3c0,4.8,0.2,9.8,1,14.5c7.4,42.2,41.7,70.9,84.6,70.9c55.6,0,111.3,0,166.9,0c4.8,0,9.8-0.2,14.5-1
		c42-7.1,71.2-41.6,71.2-84.4c0-55.9,0-111.8,0-167.7c0-5-0.3-10-1.2-14.9c-7.8-42.2-41.7-70.4-84.6-70.4
		C250.5,25.8,222.7,25.8,194.9,25.8z"/>
	<path class="st0" d="M227.6,172.4c4.5-6.2,9.6-12,13.5-18.6c5.9-10.1,11.1-20.6,16.1-31.1c5.3-10.9,13.7-17,25.8-17.4
		c10.3-0.4,20.7-0.2,31.1-0.1c11.5,0.2,19.2,11.1,16,23.5c-1.6,6.2-4.3,12.3-7.8,17.6c-9.6,14.8-19.9,29.3-30,43.8
		c-3.7,5.4-3.7,8,0.7,12.9c12,13.4,24.1,26.6,35.9,40.2c4,4.7,7.8,9.9,10.3,15.5c5.6,12.3-0.7,24.1-14.1,25.2
		c-16.4,1.3-33.2,3.3-49-3.7c-5.2-2.4-10.3-5.7-14.6-9.6c-10.8-9.7-21-19.9-31.5-29.8c-0.9-0.8-1.8-1.6-3.3-2.9
		c-0.1,1.6-0.3,2.7-0.3,3.7c0,5.9,0,11.7,0,17.6c0,15.8-9.1,24.7-25,25.5c-29.2,1.5-53.9-9.1-75.9-27.2
		c-25.6-21.1-43.9-47.9-57.8-77.7c-6.3-13.5-11.6-27.5-16.8-41.5c-6.5-18,3.2-32.3,22.3-33.1c11.3-0.5,22.7-0.2,34-0.1
		c5.4,0.1,8.7,3.3,10.7,8.4c5.8,14.2,11.5,28.4,18,42.2c4,8.5,9.3,16.4,14.1,24.6c0.9-0.7,1.2-0.8,1.2-1c0.1-12.1,0.4-24.2,0-36.3
		c-0.2-3.7-1.9-8-4.3-10.8c-6.1-7.3-4.2-20.1,6.1-24.4c4.1-1.7,8.9-2.6,13.4-2.7c12.7-0.4,25.4-0.1,38.2-0.1
		c13.2,0,21.5,7.9,21.7,21.2c0.2,13.7,0.1,27.4,0.1,41.2c0,1.4,0,2.7,0,4.1C226.9,171.9,227.3,172.2,227.6,172.4z M171.4,127.8
		c0.9,5.6,2.4,10.8,2.5,16.1c0.3,19.6,0.1,39.2,0,58.7c0,9.1-7.2,14.6-15.7,11.2c-5.8-2.3-11.3-5.8-16.1-9.8
		c-8.7-7.3-15.1-16.7-20.2-26.7c-7.6-15.2-14.4-30.9-21.7-46.3c-0.6-1.2-1.9-3-2.9-3c-7.8-0.2-15.7-0.1-23.6,0
		c-0.8,0-1.6,0.5-3.4,1.1c6.2,14.6,11.6,29.2,18.3,43.2c12.4,26,28.4,49.6,50.8,68.1c17.4,14.4,36.9,23.6,60.2,22.3
		c3.3-0.2,4.2-1.1,4.1-4.3c-0.2-9,0-18-0.1-26.9c0-4,1.5-7.2,4.6-9.7c9.9-8.3,25.2-7.8,34.9,1.4c10.4,9.8,21.2,19.4,31.1,29.8
		c11.7,12.2,26.1,9.6,41,9.7c-1.5-1.8-2.4-3-3.4-4.1c-11.7-13.1-23.5-26.2-35.3-39.2c-12.1-13.5-12.9-27.3-2.6-42
		c9.9-14.2,19.7-28.5,29.4-42.8c1.2-1.8,2.1-3.8,3.5-6.3c-8.6,0-16.3-0.1-24,0c-2.7,0-4.3,1.7-5.5,4.3c-3.2,7.2-6.4,14.3-10.1,21.2
		c-9,16.8-20.2,32-34.8,44.6c-5.6,4.9-11.8,6.2-18.7,3.2c-6.8-3-10.3-7.9-10.2-15.7c0.3-17.8,0.1-35.7,0.1-53.5c0-1.3,0-2.6,0-4
		C192.8,127.8,182.1,127.8,171.4,127.8z"/>
</g>
</svg>
